<?xml version="1.0" encoding="utf-8"?>
<!-- Generator: Adobe Illustrator 19.0.0, SVG Export Plug-In . SVG Version: 6.00 Build 0)  -->
<svg version="1.1" id="Capa_1" xmlns="http://www.w3.org/2000/svg" xmlns:xlink="http://www.w3.org/1999/xlink" x="0px" y="0px"
	 viewBox="0 0 1000 400" style="enable-background:new 0 0 1000 400;" xml:space="preserve">
<style type="text/css">
	.st0{fill:url(#logo_1_);}
</style>
<g id="Page-1">
	<g id="Catalog" transform="translate(-16.000000, -16.000000)">
		<g id="top">
			
				<linearGradient id="logo_1_" gradientUnits="userSpaceOnUse" x1="35.4874" y1="419.5737" x2="35.4874" y2="406.5466" gradientTransform="matrix(38.7692 0 0 -36 -642.0769 15029)">
				<stop  offset="0" style="stop-color:#F6891F"/>
				<stop  offset="1" style="stop-color:#F26822"/>
			</linearGradient>
			<path id="logo" class="st0" d="M883.3-70.4c-3-5-9.5-6.8-14.7-3.9L692.9,25.4c-4,2.3-6.1,6.8-5.2,11.2l59.2,283.7
				c0.3,1.4-0.3,3.4-1.2,4.4l-7.2,8c-14.9,16.5-27.6,25.5-51.7,25.5c-27,0-39.6-14-59.7-38.6c-24-29.5-53.8-66.1-126.2-66.1h-1.8
				c-9.9,0-17.9,7.9-17.9,17.6c0,9.7,8,17.6,17.9,17.6h1.8c55.2,0,76.1,25.7,98.3,52.9c19.8,24.3,42.2,51.9,87.7,51.9
				c39.3,0,60.9-17.9,78.4-37.3l64.6-71.5c0,0,153.7-170.1,153.7-170.1c3.1-3.4,3.6-8.3,1.3-12.3L883.3-70.4z"/>
		</g>
	</g>
</g>
</svg>
