<?xml version="1.0" encoding="UTF-8"?>
<svg width="20px" height="20px" viewBox="0 0 20 20" version="1.1" xmlns="http://www.w3.org/2000/svg" xmlns:xlink="http://www.w3.org/1999/xlink">
    <!-- Generator: Sketch 46.2 (44496) - http://www.bohemiancoding.com/sketch -->
    <title>money</title>
    <desc>Created with Sketch.</desc>
    <defs>
        <radialGradient cx="50%" cy="50%" fx="50%" fy="50%" r="68.6284858%" id="radialGradient-1">
            <stop stop-color="#FFCF00" offset="0%"></stop>
            <stop stop-color="#F7AE15" offset="100%"></stop>
        </radialGradient>
    </defs>
    <g id="Catalog" stroke="none" stroke-width="1" fill="none" fill-rule="evenodd">
        <g id="Page-1" transform="translate(-1250.000000, -1143.000000)">
            <g id="products" transform="translate(-20.000000, 660.000000)">
                <g id="line-3" transform="translate(152.000000, 483.000000)">
                    <g id="product-card" transform="translate(900.000000, 0.000000)">
                        <g id="You-need" transform="translate(122.000000, 0.000000)">
                            <g id="money" transform="translate(96.000000, 0.000000)">
                                <circle id="Oval-Copy-3" fill="url(#radialGradient-1)" cx="10" cy="10" r="10"></circle>
                                <path d="M10,2.38095238 C5.80446429,2.38095238 2.38095238,5.80505952 2.38095238,10 C2.38095238,14.1955357 5.80505952,17.6190476 10,17.6190476 C14.1955357,17.6190476 17.6190476,14.1949405 17.6190476,10 C17.6190476,5.80446429 14.1949405,2.38095238 10,2.38095238 Z M10,16.7261905 C6.29116071,16.7261905 3.27380952,13.7088393 3.27380952,10 C3.27380952,6.29116071 6.29116071,3.27380952 10,3.27380952 C13.7088393,3.27380952 16.7261905,6.29116071 16.7261905,10 C16.7261905,13.7088393 13.7088393,16.7261905 10,16.7261905 Z" id="Shape" fill="#F8B013" fill-rule="nonzero"></path>
                                <path d="M10,4.07407407 C6.74488284,4.07407407 4.07407407,6.74582011 4.07407407,10 C4.07407407,13.2551172 6.74582011,15.9259259 10,15.9259259 C13.2551172,15.9259259 15.9259259,13.2541799 15.9259259,10 C15.9259259,6.74488284 13.2541799,4.07407407 10,4.07407407 Z M10,15.0188964 C7.23256236,15.0188964 4.98110355,12.7674376 4.98110355,10 C4.98110355,7.23256236 7.23256236,4.98110355 10,4.98110355 C12.7674376,4.98110355 15.0188964,7.23256236 15.0188964,10 C15.0188964,12.7674376 12.7674376,15.0188964 10,15.0188964 Z" id="Shape" fill="#F8B013" fill-rule="nonzero"></path>
                            </g>
                        </g>
                    </g>
                </g>
            </g>
        </g>
    </g>
</svg>