<?xml version="1.0" standalone="no"?>
<!DOCTYPE svg PUBLIC "-//W3C//DTD SVG 20010904//EN"
 "http://www.w3.org/TR/2001/REC-SVG-20010904/DTD/svg10.dtd">
<svg version="1.0" xmlns="http://www.w3.org/2000/svg"
 width="624.000000pt" height="624.000000pt" viewBox="0 0 624.000000 624.000000"
 preserveAspectRatio="xMidYMid meet">
<metadata>
Created by potrace 1.11, written by Peter Selinger 2001-2013
</metadata>
<g transform="translate(0.000000,624.000000) scale(0.100000,-0.100000)"
fill="#000000" stroke="none">
<path d="M4770 5990 c-17 -11 -169 -98 -250 -143 -30 -16 -131 -73 -225 -127
-93 -53 -258 -147 -366 -208 -109 -62 -202 -112 -207 -112 -6 0 -12 -4 -14 -9
-1 -4 -32 -24 -68 -43 -36 -19 -130 -72 -209 -117 -78 -44 -147 -81 -151 -81
-5 0 -10 -4 -12 -8 -1 -5 -43 -30 -92 -58 -50 -27 -106 -58 -125 -69 -20 -12
-70 -40 -111 -63 -41 -24 -82 -47 -90 -52 -57 -34 -193 -110 -196 -110 -2 0
-22 -11 -44 -25 -65 -41 -86 -89 -70 -162 5 -21 11 -49 14 -63 2 -14 12 -61
21 -105 9 -44 19 -91 21 -105 3 -14 7 -33 10 -42 8 -26 15 -60 19 -93 5 -33 6
-40 28 -135 8 -36 18 -82 21 -104 4 -21 8 -42 11 -46 3 -4 7 -23 10 -41 2 -19
9 -51 14 -71 5 -21 7 -38 4 -38 -3 0 0 -6 6 -13 6 -8 9 -16 6 -18 -2 -3 2 -32
10 -65 8 -34 16 -72 19 -85 2 -13 12 -60 21 -104 9 -44 19 -88 21 -98 2 -10 6
-26 8 -35 3 -10 8 -33 11 -52 8 -48 10 -61 34 -170 11 -52 22 -106 25 -120 4
-23 31 -149 42 -195 3 -11 7 -38 10 -59 3 -22 8 -44 11 -50 4 -6 8 -19 9 -31
1 -11 5 -32 8 -47 3 -16 8 -40 11 -55 3 -16 10 -48 15 -73 6 -25 12 -54 14
-65 2 -11 7 -31 10 -45 3 -14 8 -36 10 -50 3 -14 21 -104 41 -200 21 -96 39
-186 41 -200 3 -14 9 -41 14 -60 5 -19 12 -51 15 -70 3 -19 10 -51 15 -70 8
-34 12 -55 25 -130 3 -19 8 -42 11 -50 3 -8 8 -26 10 -40 3 -14 16 -81 31
-150 22 -106 34 -165 43 -215 9 -44 0 -57 -153 -213 -145 -147 -263 -217 -417
-246 -66 -13 -265 -14 -310 -2 -14 4 -36 9 -50 12 -38 7 -144 59 -197 96 -68
46 -283 266 -283 289 0 4 -4 9 -8 11 -4 2 -52 57 -106 123 -98 118 -310 336
-376 385 -18 14 -39 31 -46 38 -7 6 -17 12 -22 12 -5 0 -15 6 -21 14 -16 19
-153 98 -231 134 -115 52 -260 100 -355 116 -16 3 -53 10 -80 15 -77 15 -208
25 -330 25 -84 0 -118 -4 -145 -17 -89 -44 -132 -116 -125 -210 4 -62 14 -85
53 -128 47 -54 98 -70 234 -75 193 -7 260 -17 408 -61 224 -66 421 -202 610
-422 30 -35 60 -69 65 -75 6 -6 28 -34 50 -61 22 -28 44 -55 50 -61 5 -6 28
-33 50 -59 111 -134 211 -235 300 -303 33 -25 62 -49 65 -52 3 -4 12 -10 20
-13 8 -4 38 -21 65 -37 28 -17 57 -33 65 -36 8 -3 34 -14 58 -25 42 -19 62
-25 192 -56 98 -24 382 -23 495 1 73 15 99 23 150 42 11 4 27 8 35 10 26 5
135 61 196 100 116 73 234 183 414 384 47 52 99 109 115 126 17 17 53 58 82
90 28 33 66 75 85 95 18 20 60 67 93 104 33 37 76 85 96 106 20 21 69 75 110
120 41 45 79 87 84 93 6 6 46 51 90 100 44 50 87 97 95 106 26 28 174 192 190
210 28 32 165 183 212 234 26 28 56 63 68 76 12 14 54 61 93 104 40 44 81 89
92 101 27 30 174 192 205 227 119 130 151 166 167 185 11 12 52 58 93 104 80
88 79 87 197 217 43 47 90 99 105 116 14 17 44 49 65 72 21 22 70 76 108 119
39 43 87 96 108 119 48 51 70 93 69 128 -1 26 -27 91 -45 113 -4 6 -50 81
-100 168 -51 87 -102 175 -114 195 -11 20 -28 48 -35 62 -8 14 -97 165 -198
335 -323 547 -342 579 -362 615 -59 103 -163 279 -183 310 -20 32 -128 216
-194 330 -39 69 -44 74 -76 96 -32 22 -101 29 -125 14z"/>
</g>
</svg>
